<mxfile host="app.diagrams.net" modified="2023-03-15T07:01:48.534Z" agent="5.0 (Macintosh; Intel Mac OS X 10_15_7) AppleWebKit/537.36 (KHTML, like Gecko) Chrome/111.0.0.0 Safari/537.36" etag="Su3nSssVG12TjUUaP-Ea" version="21.0.6" type="github">
  <diagram name="第 1 页" id="dBskGW5VL4coYza5fAlK">
    <mxGraphModel dx="1562" dy="769" grid="1" gridSize="10" guides="1" tooltips="1" connect="1" arrows="1" fold="1" page="1" pageScale="1" pageWidth="827" pageHeight="1169" math="0" shadow="0">
      <root>
        <mxCell id="0" />
        <mxCell id="1" parent="0" />
        <mxCell id="ysMwWPW9SLNAnkDJNlF3-20" value="" style="rounded=1;whiteSpace=wrap;html=1;" vertex="1" parent="1">
          <mxGeometry x="60" y="240" width="730" height="180" as="geometry" />
        </mxCell>
        <mxCell id="ysMwWPW9SLNAnkDJNlF3-2" value="hospital_db.md_product" style="rounded=1;whiteSpace=wrap;html=1;fillColor=#ffe6cc;strokeColor=#d79b00;" vertex="1" parent="1">
          <mxGeometry x="60" y="55" width="150" height="100" as="geometry" />
        </mxCell>
        <mxCell id="ysMwWPW9SLNAnkDJNlF3-3" value="binlog" style="shape=cylinder3;whiteSpace=wrap;html=1;boundedLbl=1;backgroundOutline=1;size=15;fillColor=#ffe6cc;strokeColor=#d79b00;" vertex="1" parent="1">
          <mxGeometry x="210" y="70" width="40" height="70" as="geometry" />
        </mxCell>
        <mxCell id="ysMwWPW9SLNAnkDJNlF3-9" value="" style="shape=flexArrow;endArrow=classic;html=1;rounded=0;exitX=0.5;exitY=1;exitDx=0;exitDy=0;exitPerimeter=0;entryX=0.5;entryY=0;entryDx=0;entryDy=0;fillColor=#f8cecc;strokeColor=#b85450;" edge="1" parent="1" source="ysMwWPW9SLNAnkDJNlF3-3" target="ysMwWPW9SLNAnkDJNlF3-10">
          <mxGeometry width="50" height="50" relative="1" as="geometry">
            <mxPoint x="390" y="420" as="sourcePoint" />
            <mxPoint x="230" y="290" as="targetPoint" />
          </mxGeometry>
        </mxCell>
        <mxCell id="ysMwWPW9SLNAnkDJNlF3-12" value="" style="edgeStyle=orthogonalEdgeStyle;rounded=0;orthogonalLoop=1;jettySize=auto;html=1;" edge="1" parent="1" source="ysMwWPW9SLNAnkDJNlF3-10" target="ysMwWPW9SLNAnkDJNlF3-13">
          <mxGeometry relative="1" as="geometry">
            <mxPoint x="370" y="330" as="targetPoint" />
          </mxGeometry>
        </mxCell>
        <mxCell id="ysMwWPW9SLNAnkDJNlF3-10" value="&lt;font style=&quot;font-size: 20px;&quot;&gt;&lt;b&gt;Source&lt;/b&gt;&lt;/font&gt;" style="rounded=0;whiteSpace=wrap;html=1;fillColor=#d5e8d4;strokeColor=#82b366;" vertex="1" parent="1">
          <mxGeometry x="170" y="300" width="120" height="60" as="geometry" />
        </mxCell>
        <mxCell id="ysMwWPW9SLNAnkDJNlF3-13" value="&lt;font style=&quot;font-size: 20px;&quot;&gt;&lt;b&gt;Sink&lt;/b&gt;&lt;/font&gt;" style="rounded=0;whiteSpace=wrap;html=1;fillColor=#d5e8d4;strokeColor=#82b366;" vertex="1" parent="1">
          <mxGeometry x="580" y="300" width="120" height="60" as="geometry" />
        </mxCell>
        <mxCell id="ysMwWPW9SLNAnkDJNlF3-23" value="" style="shape=flexArrow;endArrow=classic;html=1;rounded=0;entryX=0.5;entryY=1;entryDx=0;entryDy=0;fillColor=#f8cecc;strokeColor=#b85450;" edge="1" parent="1" source="ysMwWPW9SLNAnkDJNlF3-13" target="ysMwWPW9SLNAnkDJNlF3-24">
          <mxGeometry width="50" height="50" relative="1" as="geometry">
            <mxPoint x="650" y="140" as="sourcePoint" />
            <mxPoint x="640" y="160" as="targetPoint" />
          </mxGeometry>
        </mxCell>
        <mxCell id="ysMwWPW9SLNAnkDJNlF3-24" value="&lt;font style=&quot;font-size: 20px;&quot;&gt;sync_zl_product&lt;/font&gt;" style="rounded=1;whiteSpace=wrap;html=1;fillColor=#ffe6cc;strokeColor=#d79b00;" vertex="1" parent="1">
          <mxGeometry x="565" y="55" width="150" height="100" as="geometry" />
        </mxCell>
        <mxCell id="ysMwWPW9SLNAnkDJNlF3-25" value="" style="shape=image;verticalLabelPosition=bottom;labelBackgroundColor=default;verticalAlign=top;aspect=fixed;imageAspect=0;image=data:image/png,iVBORw0KGgoAAAANSUhEUgAAAscAAAEPCAYAAACupWlqAAAACXBIWXMAAAsTAAALEwEAmpwYAAAgAElEQVR4nOzdeVhV1f7H8fcGRBFQUQQcAnNAHFJRHMvZNDVTb5Nalk03Tcvqd++tLG0yu3Urm26mpjmb3RQ1zRwryzCHRAXnEBRUEBCUeTj798c5HTqBenAAtM/rec7D2WvttfZ37/Dpw2adjWGaFhMREREREcGlvAsQEREREakoFI5FRERERGwUjkVEREREbFzyLeVdwrUv3wIFuo4iIiIi1zxDH8gTEREREbHSsgoRERERERuFYxERERERG4VjEREREREbhWMRERERERuFYxERERERGxeAmKMGUdFGeddy2SwW2LTJICvr2j8XERERESl7LgDh4fDRx+VditWq1QZz511auM3PhztvhRMny+6YIiIiInL9cAF49BGYMrm8S7Hatw9+2XZpY93dYXesSYOg0j26+XKOKSIiIiLXD5cePQ0GD4HPZjl2TH7D4I0pBrcPMvCvbvCfdwwsf/grcAsWGvToaeDjatC5s0HM0aI7r5GRBn36WPt69DTYG+V4V7bfbQbLwq1z+7gajH/aYOevBmFhBu9OhqXzISzMup2a6twd3VdeNejZy+CBBwxOnipqPx4PnTsbfPKpQVB9gzsGF9VzsWNmZBg8Od56/k0aG0ybbmDqT6aIiIiIXLeMw0dMc8YMSD8L06cVJb/Hxxh8OQNmfwVe3nBPP9h+CBo3Mok5atCuMXy5Flq1NNm916BpMAQFmSQnGzTxh6cmwrBhsHgxfLMaduwomtu/ujV8TngdenSH6H0wdAgkJcF/P4H4eHhzinXf+vVNXF0vfiInT0LqGYNbbiqqE+C3GIOwJtB/GPzzn/Duu+DpZT3X7Gzjgsd8+RWDpV/Cx5/AseMwfhSEb4Ie3ZWQRURERK5Hbo0bmfj7G6SfLd7ZfxgMHWoNgiEdDH7dBY0bOe7jUxP63loUFr9ZY/3avj0cPQqhbeCjybD/gEGzkKL9Hh4L45+ybrdubW0LCgJfX4OMTGvQLo06daBmTRMo+U7z889Dq5tMHhpl8PCDwDTw8DAveMxFC2DcU9Cjh7V94UKDNWusgV5ERERErj9uF+ps06bo/Q2BkJZmfd/wRpNJ7xrc0w/A4MGn4NVXoHp1k2PHoFod2LChaOyDT0FOjuPcPXtekfqd1qSx9WvNWnDWiQ/smSYkH4XmzYva2raF48evTn0iIiIiUv4uGI5dLvAU5GeeNnnqSdj6i8GIe6xBetSD4Odv7X/vXfOC46tXK7ndMKCw8GJll55hnP9OdEnHNAxryD8aW9R24CAEBV752kRERESkYrikPwISd8xg9x4DV1do0xp8akFmprWvV0/rndn5Cwyysw1ycmDlSut7Z7RqBZvWw4kTOHwA8Go63zEHDIZFCyEhAbbvMPh+OXTtWjY1iYiIiEjZc/FxNZj8T/hyBvi4Wp8yAda7xsaf8uzv26dPQ49Q6/71q0FIc3jwAWtf40Ymc5bBv56Eul5Qx9Ng0kSKP+XhPFn55i5w620Q2sygViWDpKSLh+qYo9anXgRUte7bPtha2/c/GPaa/3wuzhzzpQkmuTnQMtCgb0cYPgYG36EP44mIiIhcrwzTtFxS2isshMRE8PEx8PAoPoXFYu338DCoUePaDpRJSQYeHuDtfW2fh4iIiIhc2CWHYxERERGR680lrTkWEREREbkeKRyLiIiIiNgoHIuIiIiI2Cgci4iIiIjYKByLiIiIiNgoHIuIiIiI2Cgci4iIiIjYKByLiIiIiNgoHIuIiIiI2Cgci4iIiIjYKByLiIiIiNgoHIuIiIiI2FTIcBwTE0NUVJTT+2dkZPDNN99QWFh4ReuIjYsjPDyc8PBwDhw4cEXnvhIiIiI4duxYeZchIiIict2okOF42bJwPvzwI6f3P3nyJAMH3k52dvYVrSPtTBp79uzl+edfYPXq1Vd07ith4sRJbNmy5YrMtWrVKubMmXNF5hIRERG5VrmVdwEleeyxRykoKCjvMmjTpjVt2rTm+PHj5V3KVRcdvY/Y2FhGjRpV3qWIiIiIlJsyv3N86tQpxox5Ak9PLzw9vZgy5U17X0xMDN26dWfQoDuYOfMzh3Gvvz6ZyZPfYMCAgXh6evH22//BYrEUm980TaZMeZMRI+5z6k7yP/7xT1q2vMnhlZCQcFnnGBMTQ2hoWyZNehlPTy/at+9AdHS0wz59+tzKsmXLGDBgIIbhwlNPjQesS0TGjXsST08vgoIaMG3aNEzTBCA5OZm77robw3BhxIj7SElJsc/37bff2ucA+PLLL3nppYn27aysLCZMeJGAgDoYhgv33z+SwsJCdu7cSWhoW1577TXmzZtHaGhbQkPbkpqaelnXQERERORaVObhePr0GaSkpLBvXzSRkbto0aK5va9evXrMnj2Ljh07EhMT4zDu+PHjTJw4kccee5Tly8N57rnniu1jsViYOHESixYtYurU9/Dw8LhoPf/4xz9YuXIFK1eu4NZbbyU5OZnq1atf1jnm5eURGRlJVFQUmzf/QMuWLXn22f9z2CciIoKRIx+gb99b2bVrFx07dgDg7bf/w/r161m16mtee+1VnnhiLD/88AMAn346nRMnThAR8TMNGzYkMjLSPl9qair79u2zbycnJ3PkyBH79gsvTGDp0qVMn/4pR2OP0qpVKywWC82bNyd8eThPPPEEgwYNInx5OOHLwy/7GoiIiIhci8p8WcWpU6ewWCy4u7sTFBREkyZN7H2VK1emcePG+Pv7k56eXmzsvffey9ChQwEICwvj119/pXHjxvb+f/zjn6xcuZI9e3bj5+fnVD0BAf4A/PLLL7z//vvs2vUrXl5el3OKdhMmvEC7du14/vnnCAlpRlZWFlWrVrX3P/nkkzz99NOAdQkHwNy5c3nmmafp2bMnAPPnL+Cbb9bQo0cPVqxYwT/+8X906tSJ1q1b88YbbzhVR25uLh9++CELFy5g8ODBAPzrX/8EoFKlSjQICsLX15eMjAwaBAVdkXMXERERuRaV+Z3jZ599hoKCAurWrUfLljexYcMGp8eGhoba3wcFBZGWlubQv3btWhITE0lKSipVTYmJifTq1Zt58+bSpk2bUo29kN+De8OGDQEc7uwC9OrV02HbNE2OHTtGixYt7G1hYWHEx8eTlZXNjh077HN6eHg47HchiYmJALRr1+7STkRERETkL6LMw3GTJk1YvjycU6dOcvvttzN48BCnP3zn4nLhcrdt+4UXXniBYcOGk5Xl3JMr8vPzue+++3nooYcYOXJkiftUqVLF6fn+KD4+HoCEEycAuPHGGx36q1Wr5rBtGAb+/v4cPXrU3nbgwAFq165N1aoeBAcH2+csKChwWMdcpUoVhzXIR478Zn/v6+trn+t8DMO44o/CExEREbnWlHk43rhxI+fOncPPz4/Q0Db4+vpiGMYVmdvT05OJE18C4MUXX3RqzGuvvU5KSgpvvDGZ/Px88vPzi+3TtestrFy5kvj4+FI9Lm7OnLmkp6czf958wsLCqFWr1kXHDBkyhAULFpKQkMD27dtZsWIF3bp1BWDo0KEsXLiI1NRUFi9e7DCudevWREZGcujQIQ4fPsyiRYvsfVWrVmXo0KF89NHHHDx4EIvFwtq1ax3CcOvWrVi7di0nTpwo8YOOIiIiIn8FZb7m+PPP59Cnz61UrVqV+vXr89//foyrqysAY8eO45NPPrHvO3PmTHr06MF3323CxcWlWIguKVR7eHiwZMkXtGx5E/3730bfvn0vWM+XX37JoUOHqFHDx952NPaow9rbfv36sWXLz9xwQyBt2rRh165fnTrXffv22eddt25tsf6S6p848SWGDBlK/fo3ADB69Gj7OuFHHnmYrl27UauWL8HBwQQGBtrHNWzYkIceeoimTUOoWrUqgwYNcpj3448/4qGHHiYkpBkAwcHBREcX/aGVm2++mQEDBtCkSTBZWVkkJp5yet22iIiIyPXCME2LWdYHTU9PJzs7m4CAgKt6HNM0L7hUwM3t0n42KCy0YJol3101DIPDhw/TrFlzCgrySU5OxsfHB3d391IdIykpCQ8PD7y9vYsd+/TpJPz8/EpcZpKamkr16tXtP3D82e/X/nzjRURERP7KyiUdVa9e/aoHY4Dvv/+eSpXcz/u6VFOmTDnvnPfeO8xhX39//1IHYwA/P79iwRjA1dWFgICA8wbbmjVrnjcYQ9G1VzAWERERKa5c7hyXlby8vBIfCfe72rVrX9K8mZmZZGVlldjn7u5OQUEBS5YsYcyYMVdsPbWIiIiIXH3XdTgWERERESkN/W5dRERERMRG4VhERERExEbhWERERETERuFYRERERMRG4VhERERExEbhWERERETERuFYRERERMRG4VhERERExEbhWERERETERuFYRERERMTG7VIGZWYarFtnfV/LF7p11V+gFhEREZFr3yWF47w82BsFO3ZAfj5063rlClq12iAlBR58QIFbRERERMrWJS2r8PExmTTR5N57r3Q5sG8f/LLtys8rIiIiInIxLk+MM/Cvbn29+W/D3pGbC5PfMAiqb+177XWDwkLnJo2MNOjTx8DH1aBHT4O9UUXzWiwwZ65Bm9bW/j59DOLiDHb+ahAWZvDuZFg6H8LCrNupqcYFjiQiIiIicuW4pKbAtr3w005o0byo4933DL5YCHMXwP9Wwfy5sGHjxYNqcrJBz3Zw8y3wczR06wYPjSrqX77C4JmHYfRYiIyBv4+GcxnQvBksXQoPjobet1vfL10K1atreYWIiIiIlA03iwXcK5kEBUKTxkUdH/wb/nY/ZGVbt7v2gIULoV/fC0/4zRrr1/bt4ehRCG0DH02G/QcMmoWYzJwJ9/wdRv/dGnqDgorGBgWBr69BRiYEBSkUi4iIiEjZcssvgOb1DYJawjvvQp8+JmfPGuRlQFIS9qdSVPOG2rUvPuGxY1CtDmzYUNT24FOQk2N9v28PjBhx5U9ERERERORyuYUvNUlMhPc/MLjvTkhIAS8vEzC4fSA8NOr8d3AruUPGOcc2P3/r1/feNXEp4eN+NzaBPXvOX5Bh4PTaZhERERGRK8nl3DkDPz9oEwrValvDqYsLDB8Dc+fCwYPWdcYxRw0iIhzXHHdoD1E/w+49BllZ1r5ePeHsSZi/wCA72yAnB1autL4HuPsemDcdNv9oYLFA9D6D2LiieVu1gk3r4cQJ64f3RERERETKiktgDQioYfD6yzD1A3B1tXZMfg0CAqBTc/BxNWjXGI785ji4QZDJxHegb1eo5w2pqQaNG5nMWQb/ehLqekEdT4NJE8G03YB+9GGT+x+DwT2gViWDXp0hO7tozpu7wK23QWgzg1qVDJKS9LQKERERESkbRlqaaWZnmwQElLxDZqZBWpqJnx9UquT8xBYLJCaCh4dBjRrFl2bk5EByMvj7l25eEREREZGrxTBNix4LISIiIiLCJf6FPBERERGR65HCsYiIiIiIjcKxiIiIiIiNwrGIiIiIiI3CsYiIiIiIjcKxiIiIiIhNmYbjqKjosjyciIiIiEip6M6xiIiIiIiNwrGIiIiIiI3CsYiIiIiIjcKxiIiIiIiNwrGIiIiIiE2FDMcxMTFERUVdcJ+IiAiOHTtWRhWJiIiIyF9BhQzHy5aF8+GHH11wn4kTJ7Fly5YyqkhERERE/grcyruAkjz22KMUFBSUdxkiIiIi8hdToe4cx8TE0K1bdwYNuoOZMz9z6EtOTuauu+7GMFwYMeI+UlJSyqlKEREREbleVahwXK9ePWbPnkXHjh2JiYlx6Pv00+mcOHGCiIifadiwIZGRkeVUpYiIiIhcrypUOK5cuTKNGzfG39+/WN+KFSsYP/4pOnXqxIsvTiiH6kRERETkelehwvH5ZGVls2PHDho3bgyAh4cHLVq0KOeqREREROR6c02E46pVPQgODiY+Ph6AgoICoqOjy7kqEREREbneXBPhGGDo0KEsXLiI1NRUFi9eXN7liIiIiMh1qEI9ym3s2HF88skn9u2ZM2fSo0cPvvtuE4888jBdu3ajVi1fgoODCQwMLMdKRUREROR6ZJimxSyrg0VFRdOy5aWvFS4stHD6dBJ+fn64uFwzN71FRERE5BpRoe4cX4yrqwsBAQHlXYaIiIiIXKd0+1VERERExEbhWERERETERuFYRERERMRG4VhERERExEbhWERERETERuFYRERERMSmTJ9zLCIiIiJSkenOsYiIiIiIjcKxiIiIiIiNwrGIiIiIiI3CsYiIiIiIjcKxiIiIiIhNhQzHMTExREVFlXcZV0xycjIbN24s7zJERERE5CIqZDhetiycDz/8qFj7gQMH+Ne/niuHii7PwYMHueOOweVdhoiIiIhcRIUMx4899ihvvjmlWHtycjLz5s0rh4pERERE5K+gQoXjmJgYunXrzqBBdzBz5mf29pycHNq378B9991PYmIioaFtCQ1ty+bNm+37fPnll7RseROG4cL9948kJSUFgNdfn0y/frfh6enFCy9MoGnTEO65517S09OdqunnnyPo1q07huFC06Yh9uURFouFDz/8kKCgBnh6ejF+/NNkZWXZx33xxRcEBNQhKKgBixd/4TBnYmIiDz30MJ6eXjRtGsLSpUsv+ZqJiIiIyJVTocJxvXr1mD17Fh07diQmJsbeXrlyZf731f/4z3/epmrVqoQvDyd8eThhYWEAfP/999x77zBefHECkZG7yMrK4v33PwDg+PHj1KtXj48//oh///vfzJw5g8OHD7Nly5aL1hMbG8vNN99Mly5dOHBgP7NmfUZGRgYAGzduZPz4p5ky5Q1WrFjO8uXLmTr1fQDS09MZPnwEL744gblz5/D111/b57RYLAwbNpxz586xZctPvPbaq9x1190kJydfsesoIiIiIpemQoXjypUr07hxY/z9/R3aDcOgQVAQdevWxdvbmwZBQTQICqJq1aoAzJ07j7CwMKpXr05CQgKdO3fmvffeIz8/H4CuXW+hS5cuAHTr1o327ds7FUaXLl2Kv78/U6a8QdOmTbnlllsYPNi6dnjVqtUMHDiQ++67jz59+jB27Fj7ko/t27fj7+/Pk08+SY8ePXjyySftcx4+fJjvv/+eHj26c+LECby9vWnRooVDgBYRERGR8uFW3gVcCQcPHqSgoIC1a9fZ2x599FH7Mgc3NzcqVapkD9Pu7u7k5eVddN64uGMMGDAAF5fiP0MkJCTQtm1b+3bz5s04dOgQADt3/moP4wAhIU3t7+Pj4wE4fPgIhw8fAaB37954e3s7fb4iIiIicnWUSzhOSEggNjaWoKAg6tevX6qx586dK9YWGBiIm5sbH3zwfoljDMO4pDoDAgKYO3duiX21a9e2h2GAo0ePEhgYCECzZiHMnj3b3hcXF+cwDuCpp56kUaNGl1SXiIiIiFwd5bKsYvXq1dxyS1dWrVpVqnHNmjUjKyuLrVu3UlhosbcPHTqEhQsXsmXLFgoLLaSmppZ67pL069eXQ4cOMW/ePLKzs0lOTuaXX34BoFu3rnz99dfs2rWLY8eOsXjxF/YlF506deLQoUNs3LiREydOsHDhIvucISEhBAYG8uGHH5GUlERhoYWtW7fy22+/XXa9IiIiInJ5yiUcp6VZnxTh6+vr0D527DgMw4V//vOfzJw5E8NwoWfPXvb+WrVq8dJLL9G5cxfc3NxYvXo1AHfddTevvvoqt9zSFTc3N2rV8mX16m/Oe3wXF5cSl0r8Wbt27fj889k8+OAoqlb1pHZtP44ePQrAnXfeyb333kvbtu0ICmoAwIQJEwDw8/Nj4sSJ9OlzK/Xq1XdYMuHu7s7q1avYuHEj/v4BuLm5MWTI0BLviIuIiIhI2TJM02KW9UH79LmVqKgo4uJiqVy58hWbNz8/n8TERGrWrGlfX3whBQUF5+1zdXW1L8coLCzk1KlT+Pj4FJv37Nmz5Obm2pdL/LnPNE2qV69e4jFSUlIoKCigdu3aToV1EREREbm6yjwc5+bmUrNmLWbN+oxhw4aV5aEdnDt3jmrVSg6tALt2/UqbNm3KsCIRERERKW/lcue4IjBN84KPc/Px8cHN7bp4mIeIiIiIOOkvG45FRERERP5MC11FRERERGwUjkVEREREbBSORURERERsFI5FRERERGwUjkVEREREbBSORURERERsFI5FRERERGwUjkVEREREbBSORURERERsFI5FRERERGwUjm0OHDhA+/YdKCy0lHcpAJw5c4bNmzdfcJ9Dhw4RGRlZRhVVDMeOw9atxlWZu2fPXuzateuqzH01WCwWNm7cSFZWlkP7mjVrCA8PJzw8HIulYnw/A+zcuZOEhITz9hcWWvjmm2/IzMwsw6pEREQc/WXC8YlpCZzbee68/W+99TYjR96Pq2vFuCT79++nf/8BF9xnxYqVfPrp9DKqqGL4aYvBy69cnbkfeGAkr78++epMfhXk5+fTp8+tnDhxwqF9//79bNy4ib/97U4KCgrKqbrinnvueb7//vvz9ufn5zFw4O0kJiaWXVEiIiJ/UjGSYBlI25ROXkJeiX2HDx9mzpw5jBw5soyrOr+2bdty6NDB8i7jL+Wuu+4iPDyc3bt3l3cpTnF3dycuLpYGDRo4tD/77LOMH/9U+RR1AQsXLmDIkCHlXYaIiMgFVbhwfG7HOaKH7mOr8QuRXXeT/lM6AGnfp7Gn7157+6m5p8AsGnd66Wn7uL0Dosg9lmNtX5LEnr57OfvVOWJfPMaevns5NOawwzG3bt1K586d8fHxcWjPyMhg3Lgn8fT0IiioAdOmTcM0iw66cuVKnnpqPFOnTiUgoA4BAXXYu3cvAF988QUBAXUICmrAyy+/wt/+dqfT16BPn1vp27cfY8eOc2gvKCjgpZcm4unpRfv2Hdi5c6dT8+XlwaiHDfyrG/i4Ggy90yAurmhpwqlT8MQ4a79/dYM3/+3csoVhww2+XVu0b1ycQefOBmlpxkWPCdDvNoNl4Qa3D7LuM/7pov6ICIMePa3tLZsbbNpU1JebC08/Y537yfEGycmGU+cZa6tvzbcGYWHW/RYvKer39vamf//+REREOHX+AEd+M+g/wHq8oPoGTz9jkJlZNOe27QbDhlv7mzS2HtsZS5YsoWXLmxxe3377rb3/5ZdfoXv3Htx//0hOnjzpdL0xMTEMGDAQw3AhNLStw9KdAQMG8sEHHxAa2paWLW9i5cqV9r6UlBTuuutuDMOFESPu4+GHH2Ht2rVOHXPFihV069adu+++hx9//NGhLzJyN+3bd8DT04vXXnvd6fMQERG5WipUOM49nkN0+314tfek9ZFWNHzvRgqzCq2dFpOgSYG0PRnKjVMaEDsqjvQt1uCceyyH3+6Kod4z9WiX1JYbnqsPLtYQUrN/TZrODsazvyf1xgfQdHYwDV4JcjjuwYOHaNmyZbF63n77P6xfv55Vq77mtdde5YknxvLDDz/Y+8+cOcNHH33EDz9sZvHiRcyfPw8XFxfS09MZPnwEzz//HAsXLmDOnDlOBwmAGTOm88QTY1i/fr1D+48//sjUqVP58sslPPPM0yxZssSp+SwWaN0KftwO2w6Cjw/cf/8fjjfTIDUFtu2Fn3ZCi+bO1dmyJcybV7T99SqoVh1q1DAvekyAyAgYMwpuvRW+/xU6drS2x8YZDLgFOneGrfvg05mQkVE0bvdmqFsXVm2E79bDuvXOnWduDhzYBhNfgn89D6s3Qa2ajjWFhISwb99+5y4AkJ8PD46CyKOwfBV8vwmmvl/U/3/PQrt2sD/B5IsvoUZ15+a97bbbWLlyBStXruCll14kOjqaOnXq2PtHj36cadM+4ccffyQ3N9epOU3T5N57h+Hu7s6OHdvp168f3bv3IDU1FYAffviBTz6Zxscff8SoUaMYPnyE/YfBadM+JS4ujp9/3kLTpk35/PPP7eMupnv37syePYvs7GxSUlIc+p566ilCQ0PZvPkH9uzZ49R8IiIiV5VpWsyK8kqYHm/uaLnTtBQWlthvySs0z+06a6auTzF33bLLPDX3pGmaFjMnLsuMIMI888MZ05JX8tjou6LM5BWnS+wbPny4+corrxRrDwwMNKdOfc++3bt3b/Of//ynfXvOnM9NwExMPOUwbt26taa/v799+9133zGrVq1aqmuxZctPxcZMmjTJHD16tEM9jz/+uPPXN8FirvnWNKe8aZo1XEx7+5ixpnn3PaZ54kTp/ntFRVvnSUuzztWunWnOm286dUzTtJh+1Uzz+RfMYvO++55pBtYzzcLC4sdcuNg6T0GBdfvV10xz7JPOHfPAAev2qtXFj/n76513/mMOHDiwVNehsNBi7j9gml+vMs377jfNe4eZ9vbAeqb51tummZ5+/mNe6HX6dJLp7+9vzpw5o1hfTk62CZiHDx8q1nfo0EETMHNzc+xtx47FmYD5yy9bTdO0mJmZmSZgfv31StM0LWbVqlXN6dM/NU3TYqalnTEB8+jRGNM0LWZYWJi5ePEi0zQtZnZ2lgmYixYtLNW59O7d21ywYL59+8yZVIdjbNnykwmYv/125JKulV566aWXXnpdiVfFunMcn0eNW6thuBT/1XPy8mR2NN5J/LvxpP+YTmGaBUue9a5y5cAqBE2/gQPdD/CL+zZiX46l8Fyh08dt2LAhx48fd2gzTZNjx47RokULe1tYWBjx8fEO+4WFheHn5+fQ9uuvu+jSpYt9Ozg42OlaLmTz5s20+MNt3bCwMKfGFRRA164G3bsZhC8H28oPCm2X6JmnIb8Amtc3aNPaYMMG537136K5Sb2msH6DdXnBb7ug/23OHfN3PXsWnzcuDvr0B5fzfHd2uBVcXa3vfWtDakrpjnlzF84rIeEEjRo1Ov8OfxIVbVDHx+ChUbB2HcTHF93ldnGB2XNh0QII8oE7BhscOuz8kzYKCwt54IEHuf3223nkkUecHnc+ycnJQNH3Y9WqHrRo0YJTp+OqFN8AACAASURBVE7Z92ne3Pr9Vb269Rb32bNnyc7OZseOHTRt2hSAKlWqOPy7uFRRUVEABAYGApTquouIiFwt5RKOExIS2LJlS7GgWal2Jc5tzyi2v1locnR8LA0/vpGQ+SEEvWxbFvGHp1TV+XtdOuZ3oMW2ZqQsO0PqN46/vsXVwDzPY9pCQpqyb98+hzbDMPD39+fo0aP2tgMHDlC7dm2H/f68DdCq1U38/PPP9u2YmJgSj1taYWFhxMbG2bcPHTrk1Lh16w1OnYQDB02mTzMZdIe1/ffl000am4QvNTlwwqT/QLjvTmvQdMajj8OXX8KqVdDrb+Drazp1zN9Vr1Z8zoAA+GWLc8cvzXn+zsvLLD7YJjo6mmbNQpw+5ttvw90PQkSEyUcfmDT705KU3r1NInebbN1nXYIxuRQPw3jjjSmcPHmSDz/8AMMo3ePrKrm7Azgsufh9Tf2xY8cA69MuoqOjqVmzaG1JScfx8LCG6MOHrWv18/LyiI6OLlU9JWncuAkASUlJAMWeuiEiIlIeyiUcr169mltu6cqqVasc2n261yDnpxxOf3UaS46F/NQCMnZlYLgYuDd0pyC9ADPfJDk8mfyooidP5MbnkrU/E8PNoGoLL9x8XSnIdgzC3u28SPsuncJzhZgWx3DUoUMHIiIiOHPmjEP7kCFDWLBgIQkJCWzfvt32waKuFz2/zp07k5iYyJw5c4iKimLGjJmlvUQl6tGjO//73/84cuQIu3btIjw83KlxFgvk5UBGhvUDatM/dezftMng3DkDPz9oEwrVaoOzWeyOO2D9VzD1PzBiuPPHvJC+fSHhIMxfYJCdbf3A3S/bLl7Q5RwTrB/AXLduHZ06dXJ6TJ061jvFeXnWD98tW1DUl5cHGzYYFBZCo0YmTZta12Q749tvv+Xll19m8eJFVKpUifz8/FI9szgoMBB/f3+WLl1KZmYmhYWF1K9fH39/fz7/fA7p6eksWGAttm27dhed784772TatE85cOAA06ZNc7qOCwkI8KdFixbMmzef9PR05syZe0XmFRERuRzlEo7T0qwfpPP19XVo92zlSaMlN/Lb3TFs89jOzlo7rU+dMCBwQn3i3zrBL+7bODUrkWp3edurL0jJZ0/zKLYav7DdczseTT3wu9vxjq7vUF8sORa2V9vBnt57HfqCg4MZPnw4ixYtcmifOPElsrOzqV//Bjp06Mjo0aMZPHjwRc+vRo0azJw5g7Fjx9GxYyc6depU7FzPZ8mSJRiGCzfffAtZWVkYhguG4UJGRgY9evSgRYsWNGkSTNu27eja9eJBHaBPb5O2HaFBTWjTEG5qZW3/PQDPmQuBNSCghsHrL8PUD4qWLVxMwxtNWnaBsyfh1j7OH9OuhMzbrq3J+5/DUw9CXS9o4g9HY88zvhTnaT/keeb46quvGDhwIG3atDn/Qf7kkYchag/4exgM6gMD7y7qKygweGQU+Lob1K5sEBkJT40730yONmzYCECzZs1xd6+Mu3tlvvrqK8D6mwjDcKFKFQ8AmjQJxjBcHJ4hbBgGs2Z9xjvvvIuXlzcbNmzAzc2NZcuWMmPGDGrU8OHhhx9h9uxZNAgKchj3R79vjxkzGldXV5o1a853331PcHAwlStXdupcAgLqYBgubNy4kfvvH4lhuDBlypsAvPXWv3nuueeoUcOH3377zbmLIyIichUZ5p9vo5aBPn1uJSoqiri42BL/B2sWmOQn5+NW3Q0XDxeH9oK0Air5Vip5TIptTJXSZ/7IyN3cdtttJCQkFPtDIElJSXh4eODt7V2qOS0WC4Zh8N577xEfn8DUqe9d8I8yuLq6OvXr86SkJGrUqIG77VfnzkpNNfD0NCkp06SnG2RnmwQElGrKyzrmxRQWWh8z5+NjULWq89+ml3rMli1vYsaM6Q7rxZ2VmAi1axdfJ22akJxs4OYGPj5l/k+tRIWFFhITT+Hr61vq76HCwkJyc/Pw9PQkPv44AQF1MM2S72gbhoGrEz9l5ebmkp6eXmztvoiISHko83Ccm5tLzZq1mDXrM4YNG1aWhy5TI0bcR9u2bUlLS2Pq1KmsXfstrVu3ptoFfq++a9evpbprKVJWNmzYwJdf/o/WrVsRHr7c1rae11+fzKRJk0occ+edd/LVV/8ryzJFREQuW7ncOf4r+O677/j111+pVasWgwYNolatWpimaX9iQEl8fHxwc3MrwypFnJOUlMTq1as5fTqZ7t270b59e1xcXMjMzCQrK6vEMe7u7vanXoiIiFwrFI5FRERERGwq1HOORURERETKk8KxiIiIiIiNwrGIiIiIiI3CsYiIiIiIjcKxiIiIiIiNwrGIiIiIiI3CsYiIiIiIjcKxiIiIiIiNwrGIiIiIiI3CsYiIiIiIjVt5F3CtyszMZN26dQDUqlWLbt26OfSvWbOGnJwcAAYPHoyLi34OEREREanoFI4vUV5eHnv27GX79u3k5+cXC8f79+8nJuYo//3vf8nNzcHd3b2cKhURERERZxmmaTHLu4hr2YIFC5g/fwFr135brO/w4cMEBzdVOBYRERG5RlSo3/VbLBY+//xzWra8CcNwoWfPXsTGxQGwdu1aQkPbYhguNG0awieffIJpWnP9N998w6OPPsb48U/j6enFuHFPkpyc7NQxT506xZgxT+Dp6YWnpxdTprxp78vNzeX11ycTEFAHT08vXn31NQoLC6/8iYuIiIhIhVChwvHy5ct5+OFHGDduLEdjjzJmzGgyzp0DrMH5nXf+Q3z8cf77348ZO3YcmzZtAiAtLY1Zs2ZRt25dvv/+O9avX8/atWudOub06TNISUlh375oIiN30aJFc3vfO++8y4IFC1i8eBFr1nzD7Nmz2bBhw5U/cRERERGpECrUmuPp02fw2GOPMXr0aAAaBAXZ+/r3709eXh6RkZHk5OQQHBzM4cOH6d27t32ff/zj/3B1dWXEiBH8/HME991330WPeerUKSwWC+7u7gQFBdGkSRN735QpUxg5ciTZ2dkA9OrVi/nzF9CvX78rdcoiIiIiUoFUqDvHu3fv5pZbbi6xb9GiRfj41OSVV15l/foNpKen20MrQO/evXF1dQWgdm1fUlJSnDrms88+Q0FBAXXr1qNly5vsd4bPnj1LVlYWSUlJrF27jrVr11GtWjVCQkIu8yxFREREpKIqlzvHCQkJxMbGEhQURP369e3twcHB7Nmzt9j+hYUWHnvs73z++WzuueceLBYLS5Yssa85vhxNmjRh+fJwEhMTmTr1fQYPHkJ6ehpeXl4ADBp0Ow899NB5x7u7u3POtvTjzyrZPoSXm5urD+SJiIiIXAPK5c7x6tWrueWWrqxatcqh/d5772HatGls3rwZi8VCdHQ0sbGxuLgY3HjjjaSlpZGXl8fChQtJTEy8IrVs3LiRc+fO4efnR2hoG3x9fTEMAxcXF0aPHs3nn8/h4MGDAMTExPDzzxEO4zt06EBERAS7d+8mKyvLoS8oMBB/f3+WLl1KZmamPswnIiIiUsGVSzhOS0sHwNfX16H90Ucf5fHHH6d79x64urrRoUNHsrOzMQyDKVPeYNKkl6lcuQoffvgRPXr0wDAMAPvXS/H553OoVq06Xl7eTJr0Mv/978f25RlvvDGZgIAAQkKaYRguNGrUmCNHDjuMb9CgAe+88x+6dLkZT08vUlNT7X2GYTBr1me88867eHl568N8IiIiIhVcuTznuE+fW4mKiiIuLpbKlSsX68/JySE5ORl/f38qVapkby8sLCQlJQU/Pz+njmOa5gXv1rq5WVeV/L5+OSAgoMT9MjMzSUtLw8/Pz6EeEREREbm+lHk4zs3NpWbNWsya9RnDhg27qsf67rvv6NWr93n7TdNyVY8vIiIiIteW6/ov5OXl5ZGenn7e/tq1a5dhNSIiIiJS0V3X4VhEREREpDQq1HOORURERETKk8KxiIiIiIiNwrGIiIiIiI3CsYiIiIiIjcKxiIiIiIiNwrGIiIiIiI3CsYiIiIiIjcKxiIiIiIiNwrGIiIiIiI3CsYiIiIiIjcKxzYEDB2jfvgOFhZZifVl5OeRbCsuhqkuz81eDhIQrO+eZMwabfzSu6Jw9e/Zi165dV3TOKyUiIoJjx45d9jxr1qwhPDyc8PBwLJbi31siIiJSsfxlwvGJaQmc23nuvP1vvfU2I0fej6tr0SXJzs9l+ILXqfXuw1R7ayTvf/9lWZR6QXl58PgYg6Sk8wfVCRPgh81XNsju3w933176ce+8a7B1a8m1PPDASF5/ffJlVnZ1TJw4iS1btlz2PPv372fjxk387W93UlBQcAUqs8rLy+Pvf3+cpKSkUo9dtWoVc+bMuWK1iIiIXE/+MuE4bVM6eQl5JfYdPnyYOXPmMHLkSIf2aVvC2XX6GHHj/stHPUfwQsRydsUfKotyz6uw0ODLGZCVff595s01GXzHlT1u27Ymv+4zSz3u2zUQd7zkvrvuuovw8HB27959mdVVXM8++yzjxz91xectLCxk5syZZGVllXpsdPQ+fvll2xWvSURE5HpQ4cLxuR3niB66j63GL0R23U36T+kApH2fxp6+e+3tp+aegj9ktdNLT9vH7R0QRe6xHGv7kiT29N3L2a/OEfviMfb03cuhMYcdjrl161Y6d+6Mj4+PQ/uCvZt5PLQPft4+xKaeAmBF1E8XPYe8PBj1sIF/dQMfV4OhdxrExRXdPT11Cp4YZ+33r27w5r+du8v7xDiDrl2t72/vD2FhBh9+VDR25UqDHj0N7h1m8OMfyjweD507G3zyqUFQfYM7BhvsjbKO+/lngz59DP54U/PDjwwmvVw0b7/bDG7rbzDuKcc6v1lj8NjjBk8/Yz2PJ8cbJCdb9/l8jkFYmMHO7+Bfz1hrHXGf43hvb2/69+9PRESEU+cPcOQ3g/4DrNc1qL712JmZRfNu224wbLi1v0ljgzXfOndtk5OTueuuuzEMF0aMuI+UlBR7X25uLq+/PpmAgDp4enrx6quvUVhoXWZz5MgR+vW7DcNwISCgDuPHP01mZqbT53M+BQUFTJr0Mk2bhmAYLtx++yD7sowxY56gS5ebAejX7zZCQ9vywQcfANY7yg888CCenl4YhgtDhgwlNi4OgJ07dxIa2pbXXnuNefPmERraltDQtqSmpgIwZcqbzJs3z17D88+/wLJly+zb8+fPp1u37hiGC+3bdyAmJuayz1NERKSiqVDhOPd4DtHt9+HV3pPWR1rR8L0bKcyyrfW1mARNCqTtyVBunNKA2FFxpG+xBufcYzn8dlcM9Z6pR7ukttzwXH1wsYaimv1r0nR2MJ79Pak3PoCms4Np8EqQw3EPHjxEy5Yti9WzPyON4NqBRJ+MYW70Twy5oRnH0k9f9DwsFmjdCn7cDtsOgo8P3H9/Uf+MmQapKbBtL/y0E1o0d+76THrJZMFC6/tPpsPSpXD/fUX93brBZ59Bbg7Y8g4AeXkGB7bBTz/C8lVQrRp8/F9rX2go7N0OP/1kvV6FhfDGS9ChQ9H4adNg9Bj4eYNjPWnp8NVnULcurNoI362HdeutfUOHWOsL6QD/95z1/Tv/KX7nOSQkhH379jt3AYD8fHhwFEQetZ7L95tg6vtF/f/3LLRrB/sTTL74EmpUd27eTz+dzokTJ4iI+JmGDRsSGRlp73vnnXdZsGABixcvYs2ab5g9ezYbNmyw1ZPPQw+NIjb2KGvWfMPGjRt5772pTp/P+SxbtowZM2awYsVy4uOPc++992DaLt/LL09i8eJFAMycOYPw5eH233pYLBbatGnNr7/u5NChg/j4+DBi+AgAmjdvTvjycJ544gkGDRpE+PJwwpeHU7269SLFxsaSmFi0TOPIkSMkJycDEBMTwwMPPMjEiS9x8uRJ3nhjMi6urpd9niIiIhVNhQrHKWtSqdTSncDnA/Fo5EG19tWo2bcmADV6+VCtYzXyTuVhybVQ5ZYq5MTkFJvDrYYbNbrXoHL9ygC4VnOjcv3KuHq6UMnPncr1K+Pu7+4wJiYmhnr16jm0/f4BvMqubjyx4mM+6PsQjWrWISXr/OuWf1elCjzztImXl8lvv0GTxhD1c1H/qURrgHavZNKksckddzi3XCEgAIICre8DAyEoyKRmzaKxNWqYNG5kUu08gfD55yG0jclDo+Dbr61tHh4mD4+F+bbQ/aMtJPfuVTSu4Y0mgfXPX9f/PWvSPszknuHwc0RRLUFBJp6e4B9grbVu3eJj69WrW6o7kM1CTO65yyQ7GxISoGUriIqy9lkscOwomCZUrWrQrq1J587OXdsVK1YwfvxTdOrUiRdfnODQN2XKFHr27El2djYZGRn06tWL+fMXWOtp1ox77rmH7OxsEhISaNWqFXv37nX6fM7njx/eq1OnDiNHjrSvhw8ICCAoyPoDXmBgIA2CgqhZ0/rvpEqVKjz77LN4e3vz22+/0aRJE/udeQ8PDxoEBeHr64uPjw8NgoJoEBSEaylDbs2aPvTt25cGQUEX31lEROQaU6HCcW58HjVurYbhUvxX4cnLk9nReCfx78aT/mM6hWkWLHm2ABtYhaDpN3Cg+wF+cd9G7MuxFJ5z/ukSDRs25Phxx4WxlVysgWHK5iXUqFyVv7XuTkZeNrWqel90voIC6NrVoHs3g/Dl8HtWsv0mnmeehvwCaF7foE1rgw0bruyH586nSWPr15q14OzJovbhw2HZbEhPN1j8BTw81hqandHhVvg9W/nWhtSUC+//ZwkJJ2jUqJHT+0dFG9TxMXhoFKxdB/HxkJFh7XNxgdlzYdECCPKBOwYbHDp88WublZXNjh07aNzYeoE8PDxo0aIFAGfPniUrK4ukpCTWrl3H2rXrqFatGiEhIdZ6oqLw9q7GyJEP8O23a4mPjyfj94Iuw8CBAxkyZAjNmjXH27saH374oVPjCgoK6NLlZjp37sKyZeHs2bMHwL4M5FI1bNiQd999h759+1G5chXGj3+a9PT0y5pTRESkIiqXcJyQkMCWLVuIj493aK9UuxLnthcPFmahydHxsTT8+EZC5ocQ9LLtjtUfnoxV5+916ZjfgRbbmpGy7Ayp3/wppbkamCU8pg0gJKQp+/btK9bezKsGESkn+OCOsQDsSYojsLrfRc9v3XqDUyfhwEGT6dNMBtk+HPf7r8WbNDYJX2py4IRJ/4Fw351Q2gcZXMqDDwyj5MDb6iaTRqGwYBF8OQOGDSv93Ofj6gaFF6g1OjqaZs1CnJ7v7bfh7gchIsLkow9Mmv1pSUrv3iaRu0227rMuwZjsxMMwqlb1IDg42P79WFBQQHR0NABeXl4ADBp0Ox988L799dJLLwLw73+/xahRo9i+fRsff/wRzZsXXyNTyd36m4rc3Fynz9Pb25tPP51GZmYGn302k/Hjn2b//uLLT/78BIx169aRkJBATMxvzJgxncG2T2aaZtF/e8MwSgzLHh4enD171r69fft2h/5nn32WgoJ8fvrpR5YsWeKwHllEROR6US7hePXq1dxyS1dWrVrl0O7TvQY5P+Vw+qvTWHIs5KcWkLErA8PFwL2hOwXpBZj5JsnhyeRHFT15Ijc+l6z9mRhuBlVbeOHm60pBtmMQ9m7nRdp36RSeK8S0OIbEDh06EBERwZkzZxza72vZHV83d7wqe7A9bj8RKSe4o8XNFz0/iwXyciAjw/pBvOmfOvZv2mRw7pyBnx+0CYVqtcFw8uaxh4c1yK5dC7m5RYH7co17El4aB0EtoXWrKzQp0LEjfPut9a70nx/zm5GRwbp16+jUqZPT89WpY71TnJdn/fDdsgVFfXl5sGGDQWEhNGpk0rQp511i8mdDhw5l4cJFpKamsnjxYnu7i4sLo0eP5vPP53Dw4EHAugznZ9v6kbp163Lu3Dny8vLYtm0b8+fPLzZ3UGAg/v7+LF26lMzMTKfu4u7cuZOEhASqVq1K+/btARyeTOHh4UGbNm349ttvyc3NtYdfi8VCbm4uGRkZxMbFMW3ap8Xmbt26FWvXruXEiRMOyzc6duzAqlWrOHPmDOvXr3d4znNcXBy7d+/G1dWVNm3a4Ovre0U+eCgiIlLRlEs4Tkuz/jrW19fXod2zlSeNltzIb3fHsM1jOztr7bQ+dcKAwAn1iX/rBL+4b+PUrESq3eVtr74gJZ89zaPYavzCds/teDT1wO/u2g5z+w71xZJjYXu1Hezp7bgmNDg4mOHDh7No0SKH9tE3D6atb31u+OgJui16nZfbD6TtDcEXPb8+vU3adoQGNaFNQ7iplbX99wA8Zy4E1oCAGgavvwxTPyhamuCMF1+Et6dAQFWDCS8Wpeqg+tanNGxbD2PvBx9X65Mwfj/uhQL4HYOsX8eMc2xf8j/rnAO7Ql6GdU4fV4OMDMOpQD9iBOTkWK9F21DHAV999RUDBw6kTZs2zpw2AI88DFF7wN/DYFAfGHh3UV9BgcEjo8DX3aB2ZYPISHhq3Plm+tO8jzzM5s2bqVXLl8mT3yAwMNDe98YbkwkICCAkpBmG4UKjRo05cuSwfdzevXupXLkKPXv24p577ik2t2EYzJr1Ge+88y5eXt72D/NdyM6dO6lf/wY8Pb1o3boNkyZNol27dg77TJo0kcmT36BKFQ9eeMG6TrpPnz506tSJGjV8uLHBjbRq1cpew+9uvvlmBgwYQJMmwbi6utmfldyjRw+8vb2pWbMWEya8SFhYmH3c6dOnadMmFMNwwcvLm+bNmzNq1CjnLq6IiMg1xDD/fBu1DPTpcytRUVHExcVSuXLlYv1mgUl+cj5u1d1w8XBxaC9IK6CSb6WSx6TYxlQpfeaPjNzNbbfdRkJCgsMfAgFIyUynqnsVPCoVr/VCUlMNPD1NSjhF0tMNsrNNAgJKXepVsXu3QY+2cPAk+PmVzbdEy5Y3MWPGdLp06VLqsYmJULu2dZ3xH5kmJCcbuLmBj0/pzqOw0MLp00n4+fnh8ueJgczMTNLS0vDz86NSJcfvwcTERGrXrl3iuJJc6A+CuLq6YhgG2dnZpKSkUKdOnVJ/aC41NRVPT88S/31dTFKS9Rr8WWFhIYmJifj4+ODh4VHqeUVERK4FZR6Oc3NzqVmzFrNmfcawK7m4VS7ZlDcNPp8FQ++Et98q85+V/nLOnTtHtQus99i169dS3U0XERGRK6dc7hxLxTJtukG9OjBggImbW3lXc/0zTdP+/OCS+Pj44Kb/ECIiIuVC4VhERERExKZCPedYRERERKQ8KRyLiIiIiNgoHIuIiIiI2Cgci4iIiIjYKByLiIiIiNgoHIuIiIiI2Cgci4iIiIjYKByLiIiIiNgoHIuIiIiI2Cgci4iIiIjYuABYLLB7t8E3awySk43yrklEREREpFy4AQwZanAiATp0gkYNwde3vMsSERERESl7RnKyaTb2gwMnTPz9y7scEREREZHy49K9q/XNwIEGYWEGuyKLllW88qrB9JkGj48x8K9u0LmzQXaWgcUCH31s0KSxtf3pZwyysqzjJr9h0H+AtX3CiwYtmxsMG26Qnq7lGiIiIiJSsbl8PM36ZuFCWLoUQpoWdR47Ds+PhmresHoTPDEWTGDjJoNJ4+HV12HRMlj9Nbz/gXXM8XioWw/e+hCm/Rs+mQ5HDsOWn8v83ERERERESsUtMND6JijIpEqV4jsEtYT/vG0CENbO2rZ6tUHX22HEcGv730cbzJ0NE16w9t9yM3TuZH3fratJu/YGKSlX8zRERERERC7fRR/ldseQ4m0nTkBoaNF2s2aQcLBou1IlqOQO7l7WbXd3yM273FJFRERERK6ui4ZjH5/ibb614fDhou3YWPC9sWjb0PJiEREREbkGXdIfAenaFTaugl2RBseOw5IvYMDtV7o0EREREZGy5XaxHUq6C3znUJMNGwx6tQMwaNkFJjxvnncOF8P6EhERERGpyAzTtJw/1V7E2bMGublQu/YlTyEiIiIiUmFcVjgWEREREbmeXNKaYxERERGR65HCsYiIiIiIjcKxiIiIiIiNwrGIiIiIiI3CsYiIiIiIjcKxUGCBfIv1fYb+zLeIiIj8hbntSdFf5/irau1b9N9+d7Ke6CciIiLiVrtKeZcgFYG+D0RERES0rEJE5P/bO8+wqK6tAb8DiDAgglSxgA1RiAJiw16TqNcSE2OJGo3GiiU3RY0liSX2bjQ21KjYldj1M0GNPYpdxIL0LiAwFJmZ78fBwREYBkTNvXe/z3N0Zq+z6+yyztprHwQCgUAg0CCUY4FAIBAIBAKBIA+hHAsEAoFAIBAIBHkI5VggEAgEAoFAIMjjH6scK1VKTh0/TIYi/Y3mczPob47+vo+jv+/jaWLCG82rNFy9fIHoyPB3XQyBQCAQCASC/wn+scpxbs5zBvbuRmJc3BvNJzoqint3bvFF/948fvTgjeZVGub9NI1LF/4qk7RWL13A1csXyiQtgUAgEAgEgv9G/rHK8dvig249+GryDORy+bsuyhvn/44fITIi7F0XQyAQCAQCgeAfy1tXjlUqFTt+86OttzuO5jJ6f9iOyPAnANy5dZ0PWjemtp0Zi+bOLBD370vn6dGpNY7mMlo0rMtfgaf0yrNTc0/aertrrgEfdXntehw7FMCYLwby5cA+OJrLGDm4L6kpyRp5RFgoH7RuzB8njtCpuSe17czYv3s7AGGhjxjwURcczWV0au7JhXOnNfGeJiUwbMDHOJrLGD1kAMlJSRrZ8oVz2L19i+b77OmTORKwV/M9OjKc0UMGUNvOjNp2ZqxbtRQA/982SvmcDWTa1xPo1NyTkYP7vnYbCAQCgUAgEPy38daV42MH9/PVqKEMGTmGy3dDGTx8JOnpaQBM+Woc7g082Xf8NPdu39CKFxEWSvcOLWjSvAVnr91j8er1pKfr54+8ccc+Nu8OwG/XAUzkplSsaPXa9UhJfsr+nVtxre/GwT/O8yjkPv5bNmjkOdnZ3Lz2Nz/PSumxkQAAIABJREFU+B7fbyax91ggVpWsUavVjBjcl3JGxhw7e4W2nT6g9/ttSU6WlODNG34lLiaaQ39eoLpzTe7cuq5JM/zJExLj891MQh89ICkpEYDc5zn079kFRUYGuw6f4uiZKxgZGQHQtftH+O3cTwMvb3y/noTfzv38MG/Ra7eBQCAQCAQCwX8bRm87wy0b1tL/8+EMHjYKgKrVnQFITUnmyoWzrFy/mWpONRj39WROHTusiXc4YC82tvZM/mE2BgYG1HJx1TvPak41AFi3aimJCfHsOniyzOoz7uvJGJUzZvjYCezx/42R477Wkn83YyYdP+im+R4dFSEpzYGraODpTR3X+qxaPJe/L56n04f/4vihAEaN/zdejZtR/72GLF8wS69y3Ai6SkjwHTbtOoBzzdoA1HGtD4BFRUssKlpiZmaOnYODps0FAoFAIBAIBNq8dcvx3Vs3aOrTskB48N3bAFSp5gRAjTwF7wWR4eG0/6ALBgalK/Kl82eZ8d1Etu09jEVFy1Kl8SoNvLwxKmcMQM3adfgr8BRKZa7WPY2btdD6npT3RoyatesAYGoqx8XVjfi4WDIzFdy89rem7iYmpri4uulVltjoKORyuUYxFggEAoFAIBCUnLeuHNeo7cLd2zcLhNesJSmLL9wGYmKitOR2Dg5cOX+uVHnGxEQyoOcHrNmyg7r13Qu9R25WgZzs7BKle/Pa3yhVSkCyCLu954GhobYx3tzcXOu7paWV5n6Q3CFCgu9gZVUJU1M5NWq5EB0l1V2Z+5yQ4DuauKampqSlpWm+X792RfO5kq0tCoWCuNjoIstraGiIMje3SLlAIBAIBALB/zpvXTnu+XEfflu/mgvnTqNSqbh/9zYRYaHY2jvg4urGnh2/kfYslV1bN2vFa9uhM6GPQti9fQtZWZk8TUog6MqlYvPLfZ7DlwP60HfQF3T5Vy9yn+egzH1e4L4Pu/fi0IG9PEtN4XmO/kryof27efo0kX07/Pmwe89i73esUhUbW3v8t/iR9iyVPTu2AdDAsxEAXXp8xL6d20hOTmL/7h1acb0aN+HkkYOkJD/l9B8niI7If/9xg4aeyOVy1ixfzNPEBHKyswk8dVwrvndTH06dOE7as1RUKpXedRQIBAKBQCD4X+GtK8cDPh/OgKEj6P1+W6paGNK1bVOyMjMBmDprLrOmfkddR0uehD7SitfA05sla/wY/+VgatrIcXeyIyzscbH5PU1K4urlC2xcs4LqVuWpblUezzrVCtw3bJQv0ZGRuFaxYsm82XrVxbFadWZO/Q736rbcvhVE776fFbxJJtP6amhUjg3+e9nut5a6jpZ8NWooi1Zv0PgB9xs8lIt/ncGtmg1L5s7CsVp1TdzmrdsiN69A/WrW/PzD9zTw8kaWl76ZuQW7D//Bwf27cXe2w9nahBOHD2rl/VGffmRnZVLX0ZL2TRroVUeBQCAQCASC/yVk0elq9bvIODsri6SnCdjZ2mv8dkF6y0Pas1Ssbe0KjadU5hIfH0tFSyvkpmaSW0NRVlCZrICbg74olblQRNPIDAzZtW0zhwP2smlXAEnx8djY2ZfIH1qpUpIQH4t1JRvKGZcvINOVZlJCfJHtA5JrimE5I6ysrHWWwdE8X3GPTn8n3UAgEAgEAoHgH8U7+yMg5U1McHSspqUYAxiXL69T8TM0NKJy5arITc0AWLZgDtUsjQu9Rgwq/bt8e3ZqXWS6WzasyS+PgSF2DpVLfFDQ0MAQB4cqBRRjfdLU1T4ANnb2xSrGAoFAIBAIBIKCvDPLcVmRoUgnW5FZqKycsTEVLCqWKt3UlOQiD6+ZmpnxJPQRYY8f80G3HqVK/5+AsBwLBAKBQCAQaPMfrxwLSo9QjgUCgUAgEAi0eWduFQKBQCAQCAQCwT8NoRwLBAKBQCAQCAR5COVYIBAIBAKBQCDIwygh610XQfBPQPQDgUAgEAgEApCp1SpxEksgEAgEAoFAIEC4VQgEAoFAIBAIBBqEciwQCAQCgUAgEOQhlGOBQCAQCAQCgSAPoRwLBAKBQCAQCAR5COVYIBAIBAKBQCDIo0jl+Pp1GSEPZEWJBf9wQkJCuH79+rsuBiQnwp+HQJHx9vJUqyH9WcllIMlK8xfVQ+/DuZMlj1cGPImMI/hRxDvJuzD+MX3vH8idB2HEJSaXebpjxoxl//79JY6XmpWBuoj+rsjJ4rlK+bpFKxGlzfO5MpfM59kFwuPi4nB3f4/09PSyKF6JSU5N59KNeyWLk5zMmTNn3lCJ3j6JiYmcOnXqXRfjtUhNy+DqrQdlnm5wcDCNGzdBqVQVFF47B3eCCo9Y2vVGpZLW45jwwuVZCsjNfbt56qKINjhx4gSDBg0ueXoloEjlePWv8PvvbzRvwRskIOB31qz59V0XA56EQIcB8DQhP+z+TTCoKF11bOFHX7h5JV/+w9h8uU9tWDkTEuOkQfZJS5jz7/x7H9yR7rt9Vfp+4RS42IFFNejZDOKi8u/VJYsOg66NJJmLHfz9V74sSwF7/aSy+NQuvJ5/HALfoaVvp9fgwrXbnDh7pfgb3xJl2feCg4P59tvvShV3wYKFXLhwoUzKUVbsP3aWoNsPyzTN4OBgNm3aROfOnbXCb0Y/YrD/z5j+3J+dQdrKyZOkGLxWjMZhyXBs5g/mzMP8h5nM59n02zoT60VDsZg3kKWBuzQylVrNsXsXabPmK0x/7s+TpBi9yxn77Ck/HNuI9bxBjNm7VEumK09FThbrLx6i1qIvqLXoiwLpzj+1HYv5g6i0cAiD/X8m63mORmZvb4+HhwebN2/Wu5xlSVhkLAeOnytRnHv37vHhh10KhOfk5PDllyOIj48vq+K9Fe7fv0/37j3edTE4e/kWh/+8WKq4TyJi2HP0dBmXCObNm8/AgZ9haFiIKrZ8JuxcV3jE0q43ylxpPb72yryYnQlfDQJ5ZTC2hi0r3nye+lBEG7Ru3Zq9e/cSFFTEw0MZINwqBG+fF5aqR5fh+FlQKmFkP3hhMVKp4JvekPgQlm2EfTtgx1owMICfVsLU9RByS7rvp4kwaxi4N5KU2BYfwazZEBsspTXrK+l/XTKAGb7g3hBSw6HfJ9CvF+Tk/WWUNXNh7VJo1RqyClqnBG+OxMREtmzZUqq4R44cITy8FNaKN8jogd1p3bRBmaa5cOEiJk2ahJmZmSYsKSOVppunYWVqjtzACJVK2zI1+sBy6ltXIWbCWnrXfI9eexdrlMrV5/YTlBBO2NhVrGjXn8kXDhAUGQLAsXsXGfD7LzSqXBOgSKtzYXTZPJWgmMe4WlRC+Yp1WFees05uYdmlQzSvXJOcV+JdfnKXGZcPcXbAdM599gO7ntxiw8VDWveMHTuGb7/9jszMTL3L+i7x8vIiJOR+gXClUsm6detQKBTvoFT/+YTHxPM4XP+HuZepV9uJCUN7l2l5Hjx4wKZNmxg4cGCZplsqdqyF61elNXf3Uvh8Ktx7S7t/V87kr7V6YmJiwsyZP/Hzz3PfUKFeUY6VSmjVSsaDh5I7RVg4dPuXDPuKMhYslPHy/LprjwyPhjKsDGUMGiwjKSnfBeNJmIzmzWUcPSbD21uK779TksfFwdBhUph7fRl79+nvunH+/AVat26DTGZA3bqumq0alUrF8uXLcXJyxszMnPHjJ2gmkJkzZ/H++x9gZmbO5MlTqFvXlT59PiU1NRWAdu3aM3XqNBwcKuPk5My+ffs0+R0/fhxPTy9Nfr/88otmMThy5AjDhg1n/PgJmJmZM3asL4mJiQCsWrWKSZMma5W9f/8BHDhw4LXqmZ6eztixvpiZmePk5Mzq1as15cnNzWXq1GmYmZnTuHETrl69qpXm9evXadeuPTKZAa1bt+HWrVt6t/sbo5It1HSFIRPgYgLcu5kvk5tJ8sat4fORsGy5FF7PA34eCTP/DSf2wZ174Dtdkl3Js/b2GgwGMvj9Hqw6BmmpumWpT2HDafhsNMjN4f4deJST/6Tb90s4GgQdupZp9Xcc/JPvF25k0rx1zFi6mb9vhmhkm/ee4Ld9J5izcjuT569ne8ApVHl/rydXqWTDzqNMnr+eGUs3ExmTpHeeuvo7wIwZP/Drr7/y5ZcjNH1JocjUOcZ09b3IyEh8fFqQkyMpXsHBwbRu3UYjV6lU+Pn54e7+HjKZAe3atedJWBhZWVk0btyEAQM+Iy4uDk9PLzw9vfTabvbz88PT04vAwEDGj5+Ap6cXffv2A+D8+fO0a9ee3Je2DpctW8a0aVIfmjZtOl9//Q2NGzfBzMycH3/8CaUyXyHbtWuXpqyffTaQpCT92v70pRv8tGwLKzcf4Ppd7e3ZOSu3s/vQaWYs2cT0xX6cuXSziFQKx9/fHx+f5lphFiZmPB6zgqU9fbE0KqclS8pI5c/4MMb59KJCeVPuJEahUOXy12Mp3623zjDCsyN2Fax48jQWgIDb0vhpUr0eERPXMqH1JyUqI8C+/tMIGDILDzvnAjJdeY7y6cGNcavpXq95gXgH7vxFB/saeFd3JSEjOS8tbQufl5cXCoWC+/dDCsQvigtX7zBjySYmzVvHtEV+7Dt6RvNMf+7KbZZt3MsvW39n8vz1rNpygOTUfLeNk2f/ZsqCDXy/cCPnrt7WO0+Ajh070bnz+4wZM1YrfNSo0fj4tADg/fc/wNPTi2XLlmnkRc3vxa1/xVGaNRdgx44dmjnG33+HVppxcXEMGTIUMzNz6tZ1Ze/evXqVpbh2v3wjWPOb/fyLP9Fx0ti8+yCMGUs2cft+KNFxScxYsokZSzaR8kw/V5tZK7Yyd7U/G3cdK1F5iuPixYs0b94cKysrveO8MXZtgcEjpDU3KkwK++OQ7jivw0tzKlN94VlqwfBi8PHxYffu3YW7pJQBWsrxo0cybp+H6tWkWWDrSvhiKGzdC3O+g8ehkiIbeFrGiE/huykQGAQZinzdBSA7C4Ivw7Sp8O0kOPwHWFeSDH0DBshIT4Pjp2HajzDsE0hMLF5BfvLkCS1atMDHx4fg4Hts2LBe40d26tQpxo+fwJw5swkIOMCBAwdYskTatouIiKBKlSqsXLmCuXPnsm7dWh48eMC5c9JWV2BgILt372bXrp2MHz+O3r0/1lgYVCoVCxcuIDIyglWrVjJmzFj++OMPAFJSUtiwYQOOjo4EBv7JyZMnOX78OCD9aPPmzSMlJQWQtpX8/f1p1qzZa9Vz/vwFnDx5kkOHDvLTTz8yevQYTp+WFoKzZ8+yZMkSdu3aycSJE9i5c6cmzcTERDw9vWjVqhV3796hTZs2evnr3Lj7kMnz1xd65erbiavVgkPrwMq6cHnuczgrtRvOhbgsKJVw9Tw088wPGz0FLgZBly9g0WqoUFEKj4+CTs5gXB4WTIGZeVuwTxN0yxLjpM9VneH3rVDJBprZQny0FO5QVbJa66L1B7BwVTGNoY1JeWMG9OjA+CEf4VbbiT1HT5OaJvlmpz5L586DMJo3qk+Pjj7cDH5MZKzkmnL9zkMehkXRtV0zfDzrk5Si30IHuvs7QHh4OCNHjsLCwoLTpwPx9R0LqHWOMV19Lzs7mwsXLmgsl5mZmZw9e1YjP3DgAEOHfsHYsWMIfRLKqFEjSU9Lo3z58uzes5sFC+Yjl8vZf2A/+w/sx9vbu9g69urVS3Pv5MmT2H9gP4sXLwLA09OTy5cva8qgVCqZMuV7mjZtAkBYWBiLFi3im2++xt9/O/Pnz+fy5cuatvv00758//0Url8PQqFQsHTpssIL8QpebnX4/JMPUKrVPEvTtmCmKRTcvP+YXp1bUq+2E0dPX9bb7T0pKQmFQoGTk5NWeDlDIypbFD7mYp9JSkMNG0c2XzmGjYk5jsamRKdKD/f30lNwsa3OnZjHbL7zFz2r1SM8Vep7NuaWyI1N9CvcKzhbVy5SpivPalb2GMgKXyNCk+Oob1sNRU4Wow+vZahLE0LStH26jY2NqV69Oo8e6e/Oolar6dK+KRO/+Jhu7Zty+eZ9rtyUdpzSFZnEJDylYgUzBvTsSGxCMpeCJL/i9IxMTp0PwsutNr06tyQ6/qneeQKsXfsro0eP4uRJbd/OGTOm4++/HYB169ay/8B+jcVR1/xe3Pqni9KuuampqfTr15/vv5/C5s2bOHjwoCZNlUpF3779SEtL49y5v/jppx/5+ONPNIYlXehq96SUZ+w7dhanKvZ81qsTapWa9TsOA1DLyZER/bvhXMWBShUtGNG/GyP6d6OCmbzYPAE+/7gzzb3q8yxd+9yMrvLow/37Ibi7uxd9w8jvoHcR63Qp1hsADA2l9bhBY+3wow/BuQ48ugebNsCEHhD9yjmWssxz7TyYOgqS8lyEcrJg8zL4/EPtuDraoHr16gBERUWWvEx6YJCZKVlwb92WcfMWNOkE5ctLwg/7Qq9eajp1VOPaBK7luXds+Q1cm0BFC4iKgubN4Nel8Py5duI//gR9Plbj3UhN505qHjyQcfVPaNMGomOggjk4ucNBPR5Q9u7di729PXPmzKZu3bq0bNmSHj0kP6ZDhw7TtWtXBgwYQMeOHRkzZozWVmyrVi3x8fEBJF+Vxo0baw3GMWNG07p1ayZOnIhcLufatWtS/T/8kFatWhEVFUVWVhYuLi48eKBt9fn663/TuHFj+vfvz/nzkqXRw8MDNzc3zaSwZ89eevfujYODw2vVc/PmzYwaNZJ27doxePBgOnTowJEjRwEIDDzNoEGD6Nq1K/3796dDhw6aNA8fliaJJk0aExoaipeXJ9evX+fePd0DuU6Nagzv26WQqyuGBobF1gUAG3vo0gfMKhSUtWsIxjYw8ye4dkz7noADMPEzaOwMR/4PxrxkiTe3yFeW3Rrlh6cmg6UlXPwTbt+AEXm+qulpumXpecpl+jP49muYuhjsbOBZin51BKjjBu27638/0LNzC6o72hEVm4h1JQsAYl9aTK0tK9KuuQfNvOpTvrwxIY+lyerW/VAc7a1p2did99s0xlxuWqJ8i+rvL3Bzc2PhwgV4e3szaNAg5HK5zjGmq+8Vx6+/rmX48OGMHDkSZycn+vTpg7u7OzKZDGcnJxwdHalQoQLOTk44Ozkhlxe/oFlaWuLs5IS5uTkODg6adABMTU3x9fXlt9+2AmiU5JfL3KNHD/r06UP37t3p06cPf/0lKRKbN2/B29ubihUrEhUVRfPmzVm8eDHPX534CqGCuZzqjnaUMyx83DR6rw4ebrX5V4fmqNVqouMSCr3vVWJipG1iW1tbve4HeJaV9wCWlcE3gTtZ1n0MlcrLSc5M0xyGK29oxOiAlSzrPIRalSqTpEjTO/2S8jp5Ps1Mx9zYlPl/+POvWh50d2uOQpVbwN3D1dWViAj9D636eLvj5eZCQlIKOc+VlDMyIipW+zfp260d7i7O1HJy5GGYdH7hTkgoBgYGfNylDd4NXHB3cdY7T4CaNWtqFv2XcXBw0DwAVa9eHWcnJypVqgQUP78Xt/4VRWnX3CtXrmBvb4+vry9t27bF19dXk+aDBw8IDAykbds2REdHU6FCBa21Uh8Ka/cbdx8B8FmvTri7OPNhuyYosrJJSk6lvHE5HO1tMDc3xcRE+uxob1O4n28hVK1sh521ZYnKow+PHz+mSpUqRd/QrB00bFq4rBTrDQAGhtJ6XK1mftiLXTRjY5g+FhasBOea8PSVPlKWeQ77Ghp6w7984OQT6NYS4mNhhb92XB1t8GLOi42NLXmZ9Cn21WsQdR/+/BOuXpUU1xd4eOR/rlYd8gyhPLgvKcInTkhXZCT0GwoKhfbTfQsf7cyi8vrNgwf5cdu2hwqF6E2vEhYWTpcuXTAoxIIXFRWFl5eX5nv9+vUICcnfQjMyMqJcuXKahdXY2FizzQtQr149AGQyGS1bttRsC2/fvh0rq0r88MOPnDz5f6SmpmpZ2Tp06IBh3mJna2uj2WKVyWSMG+fLunXrUSqVrFixgiFDPi++kjrqqVarCQ8Px83NTRPm7e1NZKT01HTmzBnc3OpryV4QHh6Bvb09J0/+H8ePnyAw8DTjxo0jK0u3n4+RkSEW5maFXHKKMOSUjNW/wZ87oIIJ/P2KJaOeC3T8F/jthnsx0iB5wR+/S5bj4e1h8dT88IpW8OAxTBkLc39F4wdkXkG3zDzP8jxlJEybDlWc4FkaWBQ9IZYF6/wPM3vVNk5fusH9x9Lv+Dw3X9FydMi3/JmZmJCukPpeZEwCjraVNDJ7m5JtyxXV31/Qq1evAnF0jTFdfa84bty4QcuWLUpU/telf/9++Pn5kZqayvbt/vj6+mJqmv+A0aBBvk+wu7ubxsp2//59cnNzOX78BMePnyAyMpJhw4aViQ+oUxXpwdncTCqHIlM/H7zKlSVrbEkOaVmYSL7JX+5bwrSm3XC2rkza8yysTCtQLu+hd86ZnViWl/NRwzak52RiLddjki4lr5NnJVNzjj8OYsOt0/zw/hAysrOQGxghe2WCCg4OLlTpLIrjp68wfbEfv5+8wK2QUJQqFTk5+btl5nJTjXJlYWZKZpa0njwMj6Gieb7vd1UH/R9aSktx83tx619RlHbNvXr1mkYZB3B1rav5/GK9evDgoWYcdejQgQr6KAEU3e4pqWmUL2+McTkjAJyq2EnherpOlJaiyqMPNWvWLNED2xvDSGozfpknrXkdekBGhrSD+qYoZww+HaFhQ+m7SXno0A0si9hhLoSEBOlh9cUcWNYYBQTA/LWwZ7f0tq0ZM/KFRe0kV6sutefSJbr3/szNteU2efOEry/Uqlmy12U5ODgUeeLY1tZWSxkODQ3VmghfnShfJSwsTPP5xo0bfPXVRJRKFcOHf4mf30b69OmDSqVi586deh9A6dWrFyNGjMTPz4+0tDS9rWlF1VMmk2Fvb09oaKgmLDg4WGNN8Pb25smT/HqEhIRgZydNEPb20v9LliwudKIrilvBoew+EliobNa/h2JkpKf1uChcG0DFSrDSD1r2hq59oHLe7+ZSH7p+WjBOWiqMHAZz50OLjuDoDp9+AZ4+YFcFrj+D2X3hPW+4mqdwW9vplinznpzj46D/SMhUQGAkzHF8vfrpIPFpKo/Co/Ed3JMqDrZExsSzcksAqpf6l0ER3dbO2oqElPzX0T1NScPU1FjvvAvr7y9jZVXwoUDXGNPV98rnbUMpFApMTEy08gZwcXHh5k3d/u9paaWzWhoaGmr5Fr+gQYMGeHh4sHXrVtatW8f169onnh8+zN9+Dw19wnvvvQdIFjsjIyOWLdN+00JZUNpnTWtra+RyOeHh4dSpU0evOA557hYJmemMafURGTlZhGVlUKWitBjWM7fkQlI0976UXFFuxofRurpbkem9yp07d0hJSaFBgwZ6Kz2lzbOGlT0HIu6xrcsILE3NCUmIxNWiktY9OTk5hIeHU7NmLb3KolKpCLx0gw4+nnRs2QiVSs3URRuB4uf+ag62BD/MPwQan1T2r+17tU8XN78Xt/4VRWnX3Hr1XNm4caNG9vKYf2HtGzfOl1q19Ps99KGCuZzs7ByUShWGhgbEJEjtbv7STpMMUKtK8ZrON4Sra12Nm2ZZUprxx4e1YdsliMg773D3BjRvozvO6+S5fzPMnCpZqR8/hO/nw8/fQa26MHeDXnm+6FeOjjqs76+BwfpF8Oknkj/07fPa1uKi6NETDm6Fc+dlKJXw9KmMQ4eLH4CuddXY1IAVKyA+Xop76ZKMR4+Lj/v++50JCQlhy5YtZGZmkpiYyKVLlwBo3boVBw8eJCgoiPDwcPz9d2i2f/Rh27btxMbGcfz4ceLi4mjatCkGBjJq1KhBSkoKOTk5bNu2jbi4OL3TtLW1ZcCAAQwf/iXjxo3DxEQ/Pz1d9ezZsydbt24jKiqKK1euEBAQQOvWrQBo27YNu3fv5uHDhwQFBWm987R9+/bExcVp0szKyiIgIKDY09te7nWY9e+hhV6vrRi/jE9H+MQDNhXy+phXWTUb3GpBz0HgUA1Wfis59OfmgndL6Z4q1SEnG7auhtGdJTcMXbKKleCLNuBaX7Io798MtYzBK+8A0PMciI2ExARIy5I+Jxe/LakP6RlZpGdk8vsp/V8x5ObiTER0AuHR8QQ/DCf5WcmUx8L6e3HoGmO6+l6VKlWQy+UcPXqUpKQktmz5TSvdTz/tw+rVqzlz5gwqlYo7d+7w5MkTjbxevXooFAouXrxY4oMXzZs35+jRY6SmphZ4W8O4cb6MHeuLm5sbDV9YL/IICAjgxo0b3L9/nz179tCmTWsAevXqybZt2zh37hxKpYqnT59y6NAbPLSiJ/369dO4dL1MQnoKEclx5KiUxOd9fq7MxdqsIu3snHC1ckClVuF36TByAyNa1JQs5gPc22BjZIx5eVOuhN3jQlI03d3yrftRKQlEpkqW6qhniUSlaLsbzJw5i5YtW/Ho0WOt8GdZCiKS40jNziA1W/qclqUoNs8cZS4RyXEkpKegUKk0nwG615cslFUr2pKYnsK6G3/Qz72VVr7Xrl1DLpdTt66LXu0pkxlQzsiQdEUmz3OVHD99pUD/KQq3us48z83l8o1g4pNSuH3/iV7x9MHU1BQPDw+OHTtGdna2xlBT2vm9OEq75jZr1oyQkBBOnTpFdHQ027Zt16Tp6upK9erVWb58BfHx8SiVKi5evMijR49eq6yutSTF/MTZv0nPyCTwQhDljIywqVRRc0+Nqg7EJaUQn5SiOdz8LmnSpAkXLlwgOblsH6CKGn86+WQgeFiAmbn0WtRtl6Ct/gfQS5xnk7Zw+rZkpQao7wE7TsPQiTqjvcyFCxfo3bu33u4xJcWg2ftgYaGmew+oUhdsbKROY2BAga3zF98//kjNVz9Ct1ZgYyyjli3kub4Wev8LjI1hfwAE/gF1K0tx+/SGNB1/k+EFjRo1ws9vI4MHf45cboatrZ3Gitq7d28+/fRTvLwa4eTkDMCUKVOKrrRcM0a2AAAGaUlEQVSBgdYTtqGhIZUrV+aDDz5k5syZWFpaIpPJmDNnNtOnz6B8eROWL19B27ZtNU/h+jyNDxokHZjo27cQC2gp6jlt2lQyMzOpWrUaTZo0ZeTIkS8pKG1xc3OjTh0XvLwa0apV/gJRu3Zt9u/fx5gxY5HLzTA1lfP991OLtYLLZJJrRWHXa1FY242ZDN+vhcTYorcsgm/AlF9h1irJyR9gkC+EhEPAb2Aqh8Cd0mtoTOzgRhBMWSjdp0sGMH0pXLkiyT6bBFt2wIuDRw/vgqMbfPad9BYLRzf4wZfXwaZSRerVro7fnmPMWrlV80YEzcEjmeafl5C+e7nXwczEhF9+C2DT3uPITcqXKO/C+rtWLoX8PrrGmK6+J5PJWLRoIZ99NhAbG9sCeQ0bNowRI0bQpk1bDA2NaNKkqdaibm1tzdSpU2ne3AcjIyONf6U+DBjQn6ysLCwtrWjQQFsBfjFupAOH2jRq1AgPD09cXevRrFkzWrSQlLSPP/6EH3/8kZYtW2FkZIS1tQ2HDx/RqyxTFmxg0rx1pCsyCbx0nUnz1rF1f/6hq4JNrr+1b+LECcydOxeFQlsZGrF3CS5rJpKYm8Ok8/txWTORu7FPAFjeYyzXEiKwXPA53/y1l509fDEpJ+0+jGzRAy+bqlRbMZrW22cyo3FXvKrlK5a1V4+ng//PAHTaOZfaq8dr5fvCn9XylR2I364cw2XNRPaG3eFAxD1c1kxk69/Hi83zTsxjXNZM5Ou/9qBQ5eKyZiKj90nW+6bObnzn2ZE2/rOotmI0DW2q8kWzblr5/vrrWmbPnqXlOqMLmQw6tmjE5Rv3mbZoIxdv3MPM1IQXv4muqd/a0oK6Naqy79hZFq/fjVERPuaFsXPnTmQyA1q0aIlCoUAmM0AmM9D6AybTp09j1qzZmJiYMnmyNP5KOr+/uv4VRWnXXDs7O6ZNm0bHjp2oUqWqliXR2NiYw4cPcerUKeztHTAyMqJnz1567Q7pavdqjnY09XDl9KUbzFq5lcjYRD7t1kZLcWpQvxYOtlYs2bCHKQvWk5RSvOJx8uzfTJq3Dv+Df6JWq5k0bx2T5q0jIzPrtV0LXVxc6NevH9u3by/+5hJQ1PjTyadfQtMmUKkmNGgPa6dJCuubyrOKU/5B+i49obyJtKa76Dig+BI5OTnMn7+Ab7/9Ru8ylhi1WqUu7ZWTo1JHRKjUGRnqEsdNTFSrY2NVaqWyZPFyc5+rIyMj1BkZ6QVkqakp6vj4uBKlB6gvXbqoTklJVj97llpofnFxsaVqn9Wrf1F7eHhohT1/nlPkpVIp9apnXFxsoWV9IcvOzipUplTmqqOjo9TJyU9L/Zv/R1y5z9XqhOiSy1RKSZb7/K2VVZGZqU7PyChV3MTkFHXO85KVtbj+Xtyla4zp6ntpac/UCkXR9czMVKgjIsLVOTnZxZYhNze3yDGUq+dvFxQUpAYKjO2BAweqlyxZrM7MVBQ57nNystUREeGFjs13dX3yySfqHTv8SxRHpVKqo1MT1LnKwtssMT1ZrcjJLFGaGRkZakA9ZMiQUtWjNHmq1Sp1erZCnZSeUiA8JiZaLZfL1SkpySVOMzc3V52YXDBNvcqTkaFOSy/duC7tVdL5vSzWIl3zQWpqis52T0xMUMfGxqiVytwya4PsnBx1XOJTtVKpLLM03+QVFBSktre3V+fmlk0bvO74U6ckqtVZJeu3r51nKa6DB39Xd+7c+Y3mIVOr/wH7C+8QmcyAS5cu0qRJkzJLMyYmhmXLljNv3jwCAg7Qvbt0wjMtLQ0Li4pFxgsKuoaHPn4tAkEpeRP9/W0zc+Yspk+fXqisd+/e7NmzW2f82bPnsHbtWvr06cOCBfO1ZIMGDcbLy5MJEyaUWXn/l7hy5QpNmjTlwYMQatcu4q9JCt45Yi367+RdjL//1jH/P68cr1+/nq5du5bpice4uDj27dtHw4YeWi/nV6vVOl+hY2VlhdGLk6MCwRvgTfT3t01GRkaRb4gwNjamYsWiF32A1atX4+joSNeuXQuMt2PHjmFra0ujRo2KiC0Q/Ocj1iKBQDf/88qxQCAQCAQCgUDwgjdzzE8gEAgEAoFAIPgPRCjHAoFAIBAIBAJBHkI5FggEAoFAIBAI8hDKsUAgEAgEAoFAkIdQjgUCgUAgEAgEgjyEciwQCAQCgUAgEOTx/+fZTvX1hN+cAAAAAElFTkSuQmCC;imageBorder=default;" vertex="1" parent="1">
          <mxGeometry x="69.5" y="460" width="711" height="271" as="geometry" />
        </mxCell>
        <mxCell id="ysMwWPW9SLNAnkDJNlF3-26" value="" style="shape=flexArrow;endArrow=classic;startArrow=classic;html=1;rounded=0;fillColor=#f8cecc;strokeColor=#b85450;" edge="1" parent="1">
          <mxGeometry width="100" height="100" relative="1" as="geometry">
            <mxPoint x="430" y="460" as="sourcePoint" />
            <mxPoint x="430" y="330" as="targetPoint" />
            <Array as="points">
              <mxPoint x="430" y="380" />
            </Array>
          </mxGeometry>
        </mxCell>
      </root>
    </mxGraphModel>
  </diagram>
</mxfile>
